<svg xmlns="http://www.w3.org/2000/svg" viewBox="0 0 100 100" width="512" height="512">
  <!-- Logo de la iglesia: paloma + cruz + llama (paleta azul/dorado) -->
  <rect width="100" height="100" rx="20" fill="#ffffff"/>
  <g transform="translate(50 50) scale(0.82) translate(-50 -45)">
    <!-- ala trasera de la paloma -->
    <path d="M8 64 C 30 50, 58 49, 92 33 C 74 63, 46 71, 20 69 C 14 69, 9 67, 8 64 Z" fill="#5E93C9"/>
    <!-- ala frontal, mas clara -->
    <path d="M14 69 C 36 59, 60 57, 86 45 C 70 72, 44 78, 20 76 C 16 75, 14 72, 14 69 Z" fill="#4AA8E0"/>
    <!-- corriente de agua -->
    <path d="M10 71 C 28 66, 46 66, 60 60" stroke="#1C61A6" stroke-width="2.6" stroke-linecap="round" fill="none"/>
    <!-- cruz -->
    <rect x="40" y="24" width="7" height="50" rx="2" fill="#154E86"/>
    <rect x="31" y="38" width="25" height="7" rx="2" fill="#154E86"/>
    <!-- llama (dorada) -->
    <path d="M64 12 C 74 22, 73 34, 65 40 C 71 36, 72 27, 67 21 C 70 30, 64 36, 59 35 C 55 29, 58 18, 64 12 Z" fill="#F5A623"/>
    <path d="M64 20 C 69 25, 69 31, 65 35 C 62 32, 61 26, 64 20 Z" fill="#FBC838"/>
  </g>
</svg>
